Coordinates
version=1
nRows=17
nColumns=24
inDegrees=yes

Units are S.I. units (second, meters, Newtons, ...)
Angles are in degrees.

endheader
time	pelvis_tilt	pelvis_list	pelvis_rotation	pelvis_tx	pelvis_ty	pelvis_tz	hip_flexion_r	hip_adduction_r	hip_rotation_r	knee_angle_r	ankle_angle_r	subtalar_angle_r	mtp_angle_r	hip_flexion_l	hip_adduction_l	hip_rotation_l	knee_angle_l	ankle_angle_l	subtalar_angle_l	mtp_angle_l	lumbar_extension	lumbar_bending	lumbar_rotation
      0.98316667	     -3.05798969	     -2.39454808	     -0.47071467	     -0.06876980	      1.01412978	      0.29090850	     -9.03630267	      7.83460200	     -0.04719253	    -12.45385404	     12.90239374	     -3.19423874	      1.68153941	     21.37777480	     -0.77737883	     -1.88506377	      5.83439833	      6.43573968	     -3.93558596	     -2.62974280	     -0.95779416	      0.82264910	      3.21327247
      0.98733333	     -3.05978577	     -2.29054499	     -0.51007767	     -0.06300019	      1.01349315	      0.29062867	     -9.09514628	      7.67566005	     -0.13998433	    -13.03566643	     13.01304292	     -2.98738015	      1.80749928	     21.43620107	     -0.57859349	     -1.59123064	      5.38557257	      6.47336718	     -3.93621810	     -2.36970981	     -0.92612212	      0.70123458	      3.26448620
      0.99150000	     -3.01204612	     -2.16458927	     -0.55365553	     -0.05720298	      1.01296300	      0.29036327	     -9.18322785	      7.49094060	     -0.24914288	    -13.66521157	     13.10724553	     -2.77904577	      2.00299108	     21.44681495	     -0.36096463	     -1.35661862	      4.87029152	      6.44906023	     -3.95625860	     -1.97878302	     -0.94869749	      0.54086639	      3.31699395
      0.99566667	     -2.94645529	     -2.03710054	     -0.59104731	     -0.05138389	      1.01248638	      0.29012703	     -9.30044490	      7.32454081	     -0.23632643	    -14.26333791	     13.05642070	     -2.86141449	      2.03090029	     21.44264184	     -0.14488129	     -1.11552470	      4.29921455	      6.43036461	     -3.98287713	     -1.92063954	     -0.99264021	      0.37638262	      3.33453794
      0.99983333	     -2.90314995	     -1.89044466	     -0.62357957	     -0.04553475	      1.01199032	      0.28984014	     -9.32830522	      7.11325317	     -0.40705478	    -15.00397697	     13.15578507	     -2.54299785	      2.26103756	     21.46074272	      0.09453608	     -0.84434112	      3.69350262	      6.31856358	     -4.12763579	     -1.51370382	     -1.00126811	      0.19205514	      3.41764859
      1.00400000	     -2.82044506	     -1.74230010	     -0.65296577	     -0.03967551	      1.01158036	      0.28959070	     -9.41389525	      6.92514299	     -0.42607085	    -15.69667632	     13.04766582	     -2.64476876	      2.30022680	     21.45270302	      0.33072340	     -0.64684177	      3.02170798	      6.23775762	     -4.19169446	     -1.44147688	     -1.06428558	     -0.00259356	      3.43329840
      1.00816667	     -2.76566763	     -1.58722086	     -0.68863718	     -0.03378233	      1.01114177	      0.28934676	     -9.42090315	      6.71407889	     -0.54569534	    -16.48524819	     12.94235698	     -2.53257056	      4.79928479	     21.45387567	      0.56949563	     -0.36582500	      2.37475095	      5.89652639	     -4.54919427	      2.54295971	     -1.07283103	     -0.22543892	      3.47518382
      1.01233333	     -2.64761659	     -1.42154095	     -0.70641382	     -0.02788997	      1.01084243	      0.28906871	     -9.48778636	      6.50217400	     -0.62873661	    -17.28170504	     12.78365214	     -2.59070113	      4.81069939	     21.41618358	      0.82310545	     -0.21816569	      1.63763908	      5.75519981	     -4.62013497	      2.55356388	     -1.17901831	     -0.42289561	      3.50883254
      1.01650000	     -2.56426587	     -1.24306619	     -0.73514600	     -0.02196892	      1.01050175	      0.28878648	     -9.45421138	      6.25005220	     -0.85381087	    -18.21475297	     12.75058894	     -2.29601462	      4.92909517	     21.39058031	      1.08620028	      0.01319595	      0.93569464	      5.45818349	     -4.92531986	      2.64425010	     -1.22442889	     -0.68041891	      3.60076892
      1.02066667	     -2.46986216	     -1.07331522	     -0.76010727	     -0.01604937	      1.01020859	      0.28850423	     -9.42119257	      6.01630191	     -1.02011298	    -19.15233033	     12.57877380	     -2.19975795	      5.13362915	     21.35100403	      1.33883322	      0.26312975	      0.22604840	      5.12060320	     -5.31754833	      2.80215514	     -1.29124608	     -0.90400304	      3.64882019
      1.02483333	     -2.36762033	     -0.89180374	     -0.78623072	     -0.01011036	      1.00996326	      0.28821568	     -9.36879963	      5.76426518	     -1.20797392	    -20.13708842	     12.35442664	     -2.10547377	      5.44285235	     21.29898341	      1.60078899	      0.48857946	     -0.48795397	      4.75406854	     -5.73004801	      3.02337119	     -1.36385122	     -1.14411090	      3.69873974
      1.02900000	     -2.23892840	     -0.70825809	     -0.81072975	     -0.00414640	      1.00981015	      0.28794761	     -9.33184538	      5.51470874	     -1.37480971	    -21.12833749	     11.97557397	     -2.16806958	      5.53114788	     21.23414759	      1.85483676	      0.57245507	     -1.24792620	      4.48486383	     -5.89723460	      3.08281067	     -1.45322983	     -1.41455258	      3.71748726
      1.03316667	     -2.14260936	     -0.51357247	     -0.84179238	      0.00178335	      1.00961049	      0.28761349	     -9.19390384	      5.22028966	     -1.65353226	    -22.25404763	     11.74815299	     -1.90349409	      5.93884183	     21.16927412	      2.12840038	      0.84725977	     -1.93424367	      3.99412463	     -6.50099670	      3.31705146	     -1.53495046	     -1.64329856	      3.79615246
      1.03733333	     -2.02756225	     -0.31145053	     -0.87194840	      0.00775640	      1.00950264	      0.28732053	     -9.07771532	      4.93051271	     -1.87212156	    -23.33669285	     11.16700997	     -2.01309233	     10.08524430	     21.09097071	      2.39742214	      0.99174453	     -2.64501099	      3.57464891	     -6.90387613	      5.44110191	     -1.62535994	     -1.91854248	      3.79793506
      1.04150000	     -1.90540310	     -0.10452805	     -0.90553098	      0.01374266	      1.00945041	      0.28699705	     -8.93158164	      4.61398685	     -2.15108494	    -24.49320273	     10.63272806	     -1.92300198	     10.11938002	     21.00799197	      2.66409668	      1.04001232	     -3.37265495	      3.24139903	     -7.09342227	      5.43834292	     -1.71441105	     -2.19025965	      3.83826273
      1.04566667	     -1.80406193	      0.09572913	     -0.93858250	      0.01966759	      1.00937468	      0.28662985	     -8.70834090	      4.28266119	     -2.49392210	    -25.74946894	     10.19646809	     -1.69836173	     10.28311996	     20.94023620	      2.92926917	      1.18277891	     -4.08234857	      2.82292146	     -7.56433372	      5.44874725	     -1.79279044	     -2.44430356	      3.90492009
      1.04983333	     -1.69087194	      0.31256496	     -0.97368259	      0.02562300	      1.00937817	      0.28626591	     -8.48160828	      3.92625674	     -2.83192074	    -27.01282159	      9.59235085	     -1.57552594	     10.55785048	     20.84400150	      3.20559686	      1.29201396	     -4.77054123	      2.43925703	     -7.96336985	      5.46828545	     -1.88145360	     -2.72297495	      3.94096221
